<?xml version="1.0" encoding="UTF-8"?>
<svg width="800px" height="800px" viewBox="100 100 600 600" version="1.1" xmlns="http://www.w3.org/2000/svg">
    <g stroke="none" stroke-width="1" fill="none" fill-rule="evenodd">
        <path d="M400,150 C270,150 150,270 150,400 C150,530 270,650 400,650 C530,650 650,530 650,400 C650,270 530,150 400,150" fill="#25A3E2"/>
        <path d="M533.3,300.8 L483.7,500.8 C479.7,518.8 470.7,522.8 456.7,515.8 L386.7,462.8 L354.7,493.8 C350.2,498.3 346.7,501.8 339.7,501.8 L344.2,430.8 L483.7,315.8 C489.2,310.3 482.7,307.3 475.2,312.8 L315.2,407.8 L246.7,385.8 C231.2,380.8 230.7,370.3 249.7,363.8 L517.2,283.8 C529.7,278.8 540.7,286.8 533.3,300.8" fill="#FFFFFF"/>
    </g>
</svg> 